HIERARCHY
ROOT Hips
{
	OFFSET 0.000000 0.000000 0.000000
	CHANNELS 6 Xposition Yposition Zposition Zrotation Yrotation Xrotation 
	JOINT LHipJoint
	{
		OFFSET 0.000000 0.000000 0.000000
		CHANNELS 3 Zrotation Yrotation Xrotation
		JOINT LeftUpLeg
		{
			OFFSET 1.363060 -1.794630 0.839290
			CHANNELS 3 Zrotation Yrotation Xrotation
			JOINT LeftLeg
			{
				OFFSET 2.448110 -6.726130 0.000000
				CHANNELS 3 Zrotation Yrotation Xrotation
				JOINT LeftFoot
				{
					OFFSET 2.562200 -7.039590 0.000000
					CHANNELS 3 Zrotation Yrotation Xrotation
					JOINT LeftToeBase
					{
						OFFSET 0.157640 -0.433110 2.322550
						CHANNELS 3 Zrotation Yrotation Xrotation
						End Site
						{
							OFFSET 0.000000 0.000000 0.000000
						}
					}
				}
			}
		}
	}
	JOINT RHipJoint
	{
		OFFSET 0.000000 0.000000 0.000000
		CHANNELS 3 Zrotation Yrotation Xrotation
		JOINT RightUpLeg
		{
			OFFSET -1.305520 -1.794630 0.839290
			CHANNELS 3 Zrotation Yrotation Xrotation
			JOINT RightLeg
			{
				OFFSET -2.542530 -6.985550 0.000000
				CHANNELS 3 Zrotation Yrotation Xrotation
				JOINT RightFoot
				{
					OFFSET -2.568260 -7.056230 0.000000
					CHANNELS 3 Zrotation Yrotation Xrotation
					JOINT RightToeBase
					{
						OFFSET -0.164730 -0.452590 2.363150
						CHANNELS 3 Zrotation Yrotation Xrotation
						End Site
						{
							OFFSET 0.000000 0.000000 0.000000
						}
					}
				}
			}
		}
	}
}
MOTION
Frames: 27
Frame Time: 0.008333
-19.096598 15.836369 0.194406 11.782583 84.885411 28.604491 -8.929830 -1.073398 5.022555 -9.611449 -5.428197 -61.943546 -1.021414 1.951201 42.670630 1.460816 6.179750 -5.397936 0.677600 0.000001 -18.976500 10.446768 -6.252636 1.484504 3.300948 -4.315504 14.000409 1.419073 -1.352814 11.505079 0.306315 5.163513 13.490604 1.598600 0.000001 -87.011700
-18.866292 15.858808 0.181074 11.627771 84.475200 27.903494 -9.013982 -1.028523 4.700554 -10.225248 -4.488211 -60.949574 -0.991262 2.018969 43.778670 1.477731 6.272401 -5.872173 0.588799 -0.000000 -19.080101 10.521342 -6.315923 1.486842 2.753801 -4.228424 13.071239 1.102020 -1.691219 14.821033 0.148875 5.223158 16.511908 1.964500 0.000000 -87.028800
-18.640929 15.878399 0.165254 11.718130 84.086305 27.385952 -9.086507 -0.975134 4.355611 -10.868695 -3.511972 -59.832314 -0.978194 2.072334 44.821015 1.483137 6.292936 -6.473057 0.475301 0.000000 -19.212000 10.645771 -6.333430 1.436507 2.084665 -4.419238 11.932800 0.775674 -1.990802 18.490817 -0.048162 5.212780 19.295043 2.302600 -0.000000 -85.923401
-18.420529 15.894264 0.147007 12.105513 83.741856 27.122878 -9.142534 -0.914305 3.995916 -11.534674 -2.537340 -58.621266 -0.978757 2.111750 45.816686 1.480845 6.255471 -7.206744 0.340000 0.000000 -19.344601 10.816649 -6.301862 1.335808 1.317236 -4.859302 10.604191 0.457236 -2.247313 22.460369 -0.285006 4.920599 21.693008 2.484100 0.000000 -83.805000
-18.205433 15.905914 0.126376 12.778241 83.456414 27.121742 -9.180955 -0.846631 3.629914 -12.209799 -1.595786 -57.346114 -0.989727 2.139107 46.779380 1.475103 6.176318 -8.074224 0.186400 0.000000 -19.457700 11.021649 -6.220700 1.187491 0.493855 -5.493441 9.119699 0.161816 -2.466864 26.660466 -0.557460 4.128366 23.574883 2.359300 0.000000 -80.918201
-17.995413 15.913095 0.103771 13.776312 83.249251 27.437424 -9.198244 -0.771663 3.267525 -12.888510 -0.723753 -56.030750 -1.008024 2.155614 47.716763 1.469969 6.073523 -9.065036 0.019100 0.000000 -19.536899 11.254557 -6.094331 0.991075 -0.359475 -6.295160 7.499989 -0.101906 -2.664551 31.044437 -0.858773 2.691340 24.817768 1.819200 -0.000000 -77.239700
-17.790287 15.916149 0.079135 15.023476 83.120348 28.008993 -9.197909 -0.689807 2.915566 -13.550258 0.060889 -54.694937 -1.031353 2.164470 48.628924 1.469404 5.964968 -10.167283 -0.158500 -0.000000 -19.578100 11.498505 -5.927263 0.752616 -1.187517 -7.185514 5.787951 -0.333133 -2.856700 35.527686 -1.182828 0.547393 25.333888 0.828500 -0.000001 -73.218000
-17.590035 15.915501 0.052812 16.517734 83.075159 28.845182 -9.179806 -0.601399 2.580861 -14.184899 0.735579 -53.351735 -1.057680 2.167501 49.510415 1.476634 5.868260 -11.359130 -0.343400 -0.000000 -19.581600 11.747396 -5.727290 0.476613 -1.961542 -8.123793 4.002966 -0.536977 -3.059429 40.052813 -1.522213 -2.214349 25.051783 -0.524000 -0.000000 -68.910200
-17.394094 15.912002 0.024966 18.236958 83.111105 29.934510 -9.145231 -0.506929 2.268597 -14.782215 1.285880 -52.009864 -1.085553 2.166447 50.348928 1.494132 5.799208 -12.613590 -0.533400 0.000000 -19.553600 11.995716 -5.503129 0.171769 -2.654571 -9.062768 2.158464 -0.722299 -3.283998 44.557668 -1.867512 -5.385511 23.946275 -2.044100 -0.000001 -64.380400
-17.202151 15.906393 -0.004010 20.177338 83.224018 31.281217 -9.094084 -0.407542 1.982375 -15.336436 1.702340 -50.675289 -1.113623 2.162245 51.132430 1.523293 5.769471 -13.901702 -0.727500 0.000000 -19.503600 12.242508 -5.264777 -0.150561 -3.248742 -9.962915 0.257862 -0.898726 -3.536400 48.986613 -2.205648 -8.677490 22.047018 -3.476900 0.000000 -59.646101
-17.013906 15.899867 -0.034234 22.276096 83.394197 32.835690 -9.031396 -0.303041 1.724971 -15.837472 1.986394 -49.358319 -1.141793 2.157469 51.842809 1.564456 5.786532 -15.191909 -0.925000 -0.000001 -19.445200 12.480739 -5.018034 -0.476966 -3.722233 -10.777915 -1.705808 -1.075799 -3.813868 53.283478 -2.520990 -11.796123 19.455911 -4.584100 -0.000000 -54.710400
-16.828871 15.893282 -0.065406 24.503764 83.607719 34.577274 -8.958688 -0.194701 1.497663 -16.284525 2.142960 -48.066535 -1.169610 2.152720 52.467777 1.616741 5.851703 -16.455329 -1.125400 -0.000001 -19.390200 12.709752 -4.769097 -0.792810 -4.064812 -11.474940 -3.745076 -1.258508 -4.109735 57.402811 -2.796068 -14.489679 16.320866 -5.200400 0.000001 -49.592299
-16.646233 15.887480 -0.097431 26.800517 83.844788 36.455482 -8.880073 -0.083304 1.301020 -16.676629 2.185160 -46.809520 -1.197335 2.148995 52.996288 1.678127 5.960069 -17.666219 -1.327400 0.000000 -19.349999 12.925364 -4.520491 -1.084044 -4.266997 -12.023912 -5.873883 -1.447619 -4.412834 61.303525 -3.013874 -16.584554 12.819372 -5.268800 -0.000000 -44.333300
-16.465575 15.883283 -0.130082 29.105789 84.088838 38.414042 -8.799562 0.030673 1.135793 -17.016087 2.131795 -45.593248 -1.225369 2.146207 53.419820 1.745680 6.101029 -18.803952 -1.528400 -0.000000 -19.330599 13.123839 -4.273878 -1.337233 -4.325703 -12.405442 -8.101178 -1.638767 -4.711122 64.948162 -3.159436 -17.984186 9.129711 -4.836000 0.000000 -38.986500
-16.286192 15.881219 -0.163208 31.349021 84.324216 40.387674 -8.721405 0.145456 0.998800 -17.306845 2.005559 -44.422972 -1.254692 2.144530 53.735490 1.815935 6.259652 -19.856160 -1.725100 0.000001 -19.330700 13.300331 -4.027719 -1.545171 -4.245246 -12.610718 -10.430477 -1.823977 -4.993871 68.303164 -3.221351 -18.654967 5.411905 -4.025400 0.000000 -33.623401
-16.107398 15.881918 -0.196505 33.472042 84.539574 42.311856 -8.650145 0.261502 0.889652 -17.554042 1.833168 -43.293959 -1.286490 2.142850 53.938676 1.885120 6.418363 -20.815522 -1.913000 0.000000 -19.343500 13.450010 -3.782258 -1.699757 -4.037365 -12.640554 -12.851259 -1.993219 -5.251397 71.332565 -3.193502 -18.613568 1.805347 -3.003200 0.000000 -28.328900
-15.928563 15.885739 -0.229827 35.417543 84.726528 44.125974 -8.589431 0.377119 0.802156 -17.762905 1.642041 -42.200123 -1.322467 2.140658 54.029542 1.949755 6.559261 -21.683611 -2.087600 -0.000000 -19.354800 13.568544 -3.534854 -1.800656 -3.720037 -12.504353 -15.346972 -2.136356 -5.477260 74.003583 -3.076615 -17.918019 -1.572040 -1.941600 -0.000000 -23.234300
-15.749081 15.893086 -0.262822 37.163853 84.883291 45.795829 -8.540859 0.492920 0.733483 -17.940371 1.456692 -41.126699 -1.364141 2.136335 54.006224 2.007059 6.666609 -22.466209 -2.245100 0.000000 -19.347000 13.654262 -3.284743 -1.846457 -3.315851 -12.220603 -17.891041 -2.245165 -5.666614 76.284691 -2.879891 -16.666965 -4.616789 -0.988200 -0.000000 -18.544301
-15.568362 15.904241 -0.295281 38.700631 85.009767 47.301022 -8.505089 0.608591 0.678221 -18.091459 1.298001 -40.058170 -1.413210 2.128765 53.866896 2.055318 6.729337 -23.173483 -2.382800 -0.000000 -19.301200 13.706121 -3.029036 -1.840471 -2.847322 -11.812119 -20.455273 -2.315199 -5.816603 78.151373 -2.621701 -14.998818 -7.244326 -0.241700 0.000000 -14.542700
-15.385874 15.919508 -0.327026 40.039337 85.109155 48.641307 -8.481220 0.724540 0.632744 -18.221078 1.180307 -38.977103 -1.471027 2.116549 53.607421 2.094041 6.742114 -23.816986 -2.499600 -0.000000 -19.200700 13.724465 -2.765090 -1.786801 -2.334377 -11.305821 -23.010388 -2.346005 -5.925693 79.587178 -2.328454 -13.086654 -9.401258 0.260100 -0.000000 -11.533500
-15.201228 15.939427 -0.358156 41.180518 85.183582 49.804920 -8.471410 0.840909 0.594473 -18.327921 1.113078 -37.863545 -1.538796 2.098695 53.217435 2.123668 6.706709 -24.405730 -2.596001 -0.000000 -19.036600 13.705817 -2.490603 -1.691868 -1.788434 -10.727507 -25.524112 -2.339805 -5.992290 80.582415 -2.031519 -11.125976 -11.081593 0.537700 -0.000000 -9.704400
-15.013863 15.963698 -0.388072 42.232083 85.245624 50.892060 -8.463066 0.959450 0.564663 -18.424372 1.088137 -36.705907 -1.615953 2.072006 52.695788 2.146807 6.630893 -24.951857 -2.675200 0.000000 -18.800600 13.661676 -2.205418 -1.560207 -1.229290 -10.113800 -27.979055 -2.299932 -6.020578 81.148219 -1.760613 -9.301726 -12.348540 0.651900 -0.000000 -9.017100
-14.823416 15.992856 -0.417153 43.191963 85.300124 51.896939 -8.457552 1.078761 0.543054 -18.504284 1.098774 -35.491099 -1.702302 2.035100 52.027718 2.165651 6.527731 -25.458081 -2.740400 -0.000001 -18.500500 13.587848 -1.910348 -1.400606 -0.654851 -9.485390 -30.351294 -2.227689 -6.011915 81.289971 -1.541491 -7.778221 -13.304105 0.674500 0.000000 -9.170800
-14.629546 16.027059 -0.445597 44.084221 85.355744 52.843589 -8.451704 1.197216 0.530757 -18.564567 1.128879 -34.211032 -1.796401 1.985788 51.202099 2.183021 6.413491 -25.924868 -2.795900 -0.000000 -18.151400 13.484955 -1.608548 -1.221066 -0.063670 -8.861651 -32.624580 -2.122681 -5.970325 81.020172 -1.391260 -6.667058 -14.078394 0.669800 -0.000000 -9.681200
-14.431897 16.066563 -0.473786 44.904443 85.418201 53.733727 -8.445140 1.312065 0.528740 -18.599936 1.158053 -32.862589 -1.896377 1.922251 50.205218 2.201524 6.306568 -26.346498 -2.846100 -0.000000 -17.774800 13.350844 -1.304193 -1.028900 0.549294 -8.251463 -34.783808 -1.984642 -5.898453 80.343106 -1.318581 -6.022211 -14.760656 0.680100 0.000000 -10.329300
-14.230432 16.111184 -0.502084 45.645558 85.490567 54.562844 -8.439160 1.421073 0.538894 -18.605506 1.166431 -31.443774 -1.999786 1.843286 49.029176 2.223028 6.223525 -26.715103 -2.894900 0.000000 -17.400700 13.183077 -1.003504 -0.830634 1.187668 -7.662383 -36.813760 -1.811355 -5.799290 79.266259 -1.323382 -5.826711 -15.456840 0.733700 -0.000000 -10.526600
-14.025156 16.160631 -0.530936 46.277646 85.571647 55.303437 -8.438115 1.522164 0.563489 -18.576883 1.135793 -29.953970 -2.103862 1.748225 47.667390 2.248540 6.179503 -27.018134 -2.945200 -0.000000 -17.059600 12.977596 -0.713494 -0.629985 1.853827 -7.094246 -38.697021 -1.603307 -5.673092 77.785824 -1.398403 -6.008214 -16.189236 0.837900 -0.000001 -10.168700
